<svg width="135" height="134" viewBox="0 0 135 134" fill="none" xmlns="http://www.w3.org/2000/svg">
<mask id="mask0_1_5" style="mask-type:alpha" maskUnits="userSpaceOnUse" x="-4" y="-9" width="143" height="143">
<circle cx="67.5" cy="62.5" r="71.5" fill="#C4C4C4"/>
</mask>
<g mask="url(#mask0_1_5)">
<path d="M113.49 132.9C104.37 137.01 96.05 138.28 94.9 135.73C93.75 133.18 100.21 127.78 109.32 123.66C118.44 119.55 126.76 118.28 127.91 120.83C129.06 123.38 122.61 128.78 113.49 132.9Z" fill="#030303"/>
<path d="M109.71 155.31L105.37 144.97L101.89 136.69L98.96 129.7L92.52 114.37C89.13 106.3 92.34 97.31 99.51 94.8C100.76 94.36 102.05 94.16 103.32 94.16C103.44 94.16 103.56 94.16 103.67 94.17C109.24 94.33 114.66 98.43 116.86 104.73L122.09 119.67L124.43 126.37L134.55 155.31" fill="#F5F5FF"/>
<path d="M109.71 155.31L105.37 144.97L101.89 136.69L98.96 129.7L92.52 114.37C89.13 106.3 92.34 97.31 99.51 94.8C100.76 94.36 102.05 94.16 103.32 94.16C103.44 94.16 103.56 94.16 103.67 94.17C109.24 94.33 114.66 98.43 116.86 104.73L122.09 119.67L124.43 126.37L134.55 155.31" stroke="#030303" stroke-width="0.535" stroke-miterlimit="10" stroke-linecap="round" stroke-linejoin="round"/>
<path d="M127.72 120.52C126.03 118.39 118.05 119.73 109.33 123.66C100.21 127.78 93.74 133.18 94.91 135.74C94.94 135.8 94.97 135.84 95.01 135.89L94.91 135.93L84.84 112.32C80.89 103.05 85.16 92.48 94.14 89.34C95.84 88.75 97.57 88.46 99.29 88.46C105.44 88.46 111.34 92.11 114.36 98.02L127.72 120.52Z" fill="#030303"/>
<path d="M21.33 132.9C30.45 137.01 38.77 138.28 39.92 135.73C41.07 133.18 34.61 127.78 25.5 123.66C16.38 119.55 8.06 118.28 6.91 120.83C5.75 123.38 12.21 128.78 21.33 132.9Z" fill="#030303"/>
<path d="M0.269997 155.31L10.39 126.38L12.73 119.67L17.96 104.73C20.21 98.3 25.8 94.16 31.5 94.16H31.57C32.82 94.17 34.07 94.37 35.3 94.8C42.47 97.31 45.69 106.3 42.3 114.37L35.86 129.7V129.71L32.93 136.69L29.81 144.13L25.11 155.31" fill="#F5F5FF"/>
<path d="M0.269997 155.31L10.39 126.38L12.73 119.67L17.96 104.73C20.21 98.3 25.8 94.16 31.5 94.16H31.57C32.82 94.17 34.07 94.37 35.3 94.8C42.47 97.31 45.69 106.3 42.3 114.37L35.86 129.7V129.71L32.93 136.69L29.81 144.13L25.11 155.31" stroke="#030303" stroke-width="0.535" stroke-miterlimit="10" stroke-linecap="round" stroke-linejoin="round"/>
<path d="M7.1 120.52C8.79 118.39 16.77 119.73 25.49 123.66C34.61 127.78 41.08 133.18 39.91 135.74C39.88 135.8 39.85 135.84 39.81 135.89L39.91 135.93L49.98 112.32C53.93 103.05 49.66 92.48 40.68 89.34C38.98 88.75 37.25 88.46 35.53 88.46C29.38 88.46 23.48 92.11 20.46 98.02L7.1 120.52Z" fill="#030303"/>
<path d="M83.54 41.36C81.07 45.33 81.31 50.04 84.07 51.87C86.84 53.7 91.09 51.97 93.56 47.99C96.03 44.02 95.79 39.31 93.03 37.48C90.26 35.65 86.01 37.39 83.54 41.36Z" fill="#F5F5FF" stroke="#030303" stroke-width="0.535" stroke-miterlimit="10" stroke-linecap="round" stroke-linejoin="round"/>
<path d="M90.95 39.39C92.15 39.86 93.06 41 93.25 42.27C93.44 43.54 92.91 44.9 91.91 45.71" stroke="#030303" stroke-width="0.535" stroke-miterlimit="10" stroke-linecap="round" stroke-linejoin="round"/>
<path d="M50.15 41.36C52.62 45.33 52.38 50.04 49.62 51.87C46.85 53.7 42.6 51.97 40.13 47.99C37.66 44.02 37.9 39.31 40.66 37.48C43.42 35.65 47.67 37.39 50.15 41.36Z" fill="#F5F5FF" stroke="#030303" stroke-width="0.535" stroke-miterlimit="10" stroke-linecap="round" stroke-linejoin="round"/>
<path d="M42.74 39.39C41.54 39.86 40.63 41 40.44 42.27C40.25 43.54 40.78 44.9 41.78 45.71" stroke="#030303" stroke-width="0.535" stroke-miterlimit="10" stroke-linecap="round" stroke-linejoin="round"/>
<path d="M79.12 85.88C79.34 92.6 73.97 98.15 67.25 98.15C60.67 98.15 55.37 92.81 55.37 86.28C55.37 86.15 55.37 86.01 55.38 85.88L56.7 68.17L57.04 63.69L57.7 54.89H76.8L77.85 68.79L78.6 78.91L79.12 85.88Z" fill="#F5F5FF" stroke="#030303" stroke-width="0.5589" stroke-miterlimit="10" stroke-linecap="round" stroke-linejoin="round"/>
<path d="M78.59 78.92C72.32 79.37 65.41 76.25 60.67 70.19C59.07 68.16 57.85 65.95 57.03 63.7L57.69 54.9H76.79L77.84 68.8L78.59 78.92Z" fill="#030303"/>
<path d="M87.76 52.29C87.02 54.21 85.94 56.2 84.65 58.13C82.16 61.84 78.86 65.33 75.57 67.55C71.95 69.98 67.21 70.77 63.09 69.36C59.85 68.26 57.17 65.94 54.79 63.49C51.8 60.43 49.08 57.01 47.55 53C46.37 49.9 45.86 46.44 45.72 42.91C45.66 41.06 45.69 39.2 45.77 37.34C45.92 34.28 46.21 31.25 46.48 28.45C47.09 21.82 51.11 15.51 56.85 12.13C62.48 8.81999 69.66 8.32999 75.68 10.85C81.7 13.37 86.4 18.81 88 25.13C89.07 29.38 88.79 33.78 88.8 38.1C88.8 38.37 88.8 38.62 88.81 38.89C88.83 40.18 88.9 41.48 88.92 42.78C89.01 46.02 88.95 49.24 87.76 52.29Z" fill="#F5F5FF" stroke="#030303" stroke-width="0.535" stroke-miterlimit="10" stroke-linecap="round" stroke-linejoin="round"/>
<path d="M63.97 30.98C65.81 31.07 67.71 30.8 69.31 29.92C70.92 29.03 72.19 27.46 72.41 25.65C73.62 28.04 75.92 29.87 78.54 30.53C81.16 31.19 84.06 30.67 86.27 29.14C89.02 27.24 90.6 23.53 89.41 20.42C88.09 16.99 84.14 15.38 80.52 14.59C73.46 13.06 66.04 13.25 59.06 15.07C56.91 15.63 50.91 16.73 50.1 19.06C49.26 21.46 52.69 25.29 54.25 26.76C56.88 29.2 60.35 30.81 63.97 30.98Z" fill="#030303"/>
<path d="M72.79 33.43C73.72 32.87 74.74 32.49 75.81 32.2C76.88 31.92 78.03 31.77 79.2 31.81C80.37 31.85 81.59 32.12 82.66 32.68C83.73 33.23 84.61 34.1 85.08 35.13C84 34.77 83.03 34.59 82.1 34.56C81.17 34.53 80.28 34.65 79.38 34.81C77.57 35.13 75.74 35.76 73.68 36.01C72.91 36.11 72.22 35.56 72.12 34.8C72.05 34.24 72.33 33.71 72.79 33.43Z" fill="#030303"/>
<path d="M63.13 36.02C61.07 35.76 59.23 35.14 57.43 34.82C56.53 34.66 55.64 34.54 54.71 34.57C53.78 34.6 52.81 34.79 51.73 35.14C52.2 34.1 53.08 33.24 54.15 32.69C55.22 32.13 56.44 31.86 57.61 31.82C58.79 31.78 59.93 31.94 61 32.21C62.07 32.5 63.09 32.88 64.02 33.44C64.68 33.84 64.9 34.69 64.5 35.35C64.21 35.83 63.66 36.08 63.13 36.02Z" fill="#030303"/>
<path d="M62.98 42.94C62.57 42.61 62.17 42.25 61.77 41.91C61.39 41.59 61 41.29 60.55 41.08C59.7 40.6 58.73 40.39 57.78 40.36C56.82 40.35 55.87 40.54 55 40.93C54.56 41.12 54.15 41.37 53.75 41.65C53.33 41.97 52.91 42.29 52.34 42.42C52.21 42.45 52.08 42.37 52.05 42.23C52.04 42.18 52.04 42.13 52.06 42.08C52.3 41.54 52.69 41.19 53.08 40.84C53.51 40.48 53.97 40.11 54.49 39.87C55.51 39.32 56.69 39.11 57.83 39.17C58.98 39.25 60.1 39.62 61.04 40.26C61.52 40.57 61.92 40.97 62.3 41.38C62.64 41.79 62.97 42.2 63.29 42.62C63.36 42.72 63.34 42.85 63.25 42.93C63.17 43.01 63.05 43 62.98 42.94Z" fill="#030303"/>
<path d="M59.54 41.31C59.39 40.3 58.46 39.61 57.45 39.75C56.44 39.9 55.75 40.83 55.9 41.84C56.05 42.85 56.98 43.54 57.99 43.39C58.99 43.25 59.69 42.31 59.54 41.31Z" fill="#030303"/>
<path d="M62.92 42.83C62.07 43.37 61.05 43.67 59.98 43.71" stroke="#030303" stroke-width="0.5006" stroke-miterlimit="10" stroke-linecap="round" stroke-linejoin="round"/>
<path d="M63.02 40.59C61.9 39.26 60.22 38.41 58.48 38.3" stroke="#030303" stroke-width="0.5006" stroke-miterlimit="10" stroke-linecap="round" stroke-linejoin="round"/>
<path d="M72.37 42.64C72.69 42.22 73.03 41.81 73.36 41.4C73.74 40.99 74.14 40.59 74.62 40.28C75.56 39.64 76.69 39.28 77.83 39.19C78.98 39.13 80.16 39.34 81.17 39.89C81.69 40.14 82.15 40.5 82.58 40.86C82.97 41.21 83.37 41.56 83.6 42.1C83.65 42.22 83.6 42.37 83.47 42.42C83.42 42.44 83.37 42.45 83.32 42.43C82.74 42.3 82.33 41.98 81.91 41.66C81.51 41.38 81.1 41.13 80.66 40.94C79.79 40.55 78.84 40.36 77.88 40.37C76.93 40.4 75.96 40.61 75.11 41.09C74.67 41.3 74.28 41.6 73.89 41.92C73.49 42.26 73.09 42.61 72.68 42.95C72.59 43.03 72.45 43.01 72.37 42.92C72.31 42.83 72.31 42.72 72.37 42.64Z" fill="#030303"/>
<path d="M76.12 41.31C76.27 40.3 77.2 39.61 78.21 39.75C79.22 39.9 79.91 40.83 79.76 41.84C79.61 42.85 78.68 43.54 77.67 43.39C76.67 43.25 75.97 42.31 76.12 41.31Z" fill="#030303"/>
<path d="M72.73 42.83C73.58 43.37 74.6 43.67 75.67 43.71" stroke="#030303" stroke-width="0.5006" stroke-miterlimit="10" stroke-linecap="round" stroke-linejoin="round"/>
<path d="M72.64 40.59C73.76 39.26 75.44 38.41 77.18 38.3" stroke="#030303" stroke-width="0.5006" stroke-miterlimit="10" stroke-linecap="round" stroke-linejoin="round"/>
<path d="M66.57 56.54C66.89 56.85 67.34 57.03 67.79 57.03C68.24 57.03 68.69 56.85 69.01 56.54C69.52 56.05 70.43 56.35 71.12 56.45C71.82 56.55 72.53 56.69 73.21 56.54C73.7 56.43 74.15 56.14 74.42 55.72" stroke="#030303" stroke-width="0.4456" stroke-miterlimit="10" stroke-linecap="round" stroke-linejoin="round"/>
<path d="M66.57 56.54C66.06 56.05 65.15 56.35 64.46 56.45C63.77 56.55 63.05 56.69 62.37 56.54C61.82 56.42 61.32 56.02 61.15 55.48" stroke="#030303" stroke-width="0.4456" stroke-miterlimit="10" stroke-linecap="round" stroke-linejoin="round"/>
<path d="M64.57 58.52C66.35 59.14 68.32 59.22 70.15 58.76" stroke="#030303" stroke-width="0.4456" stroke-miterlimit="10" stroke-linecap="round" stroke-linejoin="round"/>
<path d="M67.67 64.57V67.89" stroke="#030303" stroke-width="0.535" stroke-miterlimit="10" stroke-linecap="round" stroke-linejoin="round"/>
<path d="M67.82 49.72V42.66" stroke="#030303" stroke-width="0.535" stroke-miterlimit="10" stroke-linecap="round" stroke-linejoin="round"/>
<path d="M65.46 51.09L66.65 51.91C67.42 52.44 68.26 52.44 69.03 51.91L70.22 51.09" stroke="#030303" stroke-width="0.5731" stroke-miterlimit="10" stroke-linecap="round" stroke-linejoin="round"/>
<path d="M88.8 38.1C88.25 37.88 87.77 37.5 87.39 37.05C86.75 36.31 86.36 35.39 86.04 34.46C84.61 30.35 84.54 25.5 85.3 21.21C80.43 21.28 75.72 18.26 73.57 13.88C67.95 17.46 61.47 18.95 54.82 18.62C54.57 25.75 51.14 32.68 45.76 37.32C45.91 34.26 46.2 31.23 46.47 28.43C47.08 21.8 51.1 15.49 56.84 12.11C62.47 8.8 69.65 8.31 75.67 10.83C81.69 13.35 86.4 18.81 88 25.13C89.07 29.38 88.79 33.78 88.8 38.1Z" fill="#030303"/>
<path d="M44.15 21.07C45.65 12.4 53.89 1.76 63.82 0.429998C73.75 -0.890002 84.57 7.2 88.9 15.1C74.33 19.68 59.55 22.33 44.15 21.07Z" fill="#F5F5FF" stroke="#030303" stroke-width="0.5756" stroke-miterlimit="10" stroke-linecap="round" stroke-linejoin="round"/>
<path d="M91.02 18.09C84.68 22.9 76.16 25.07 67.78 26.09C59.4 27.1 50.87 27.1 42.52 28.27C41.44 26.9 40.99 25.62 41.23 23.98C41.47 22.34 42.42 20.77 43.86 19.66C59.47 18.72 74.91 16.22 89.5 11.33C90.22 11.33 92.41 15.82 91.02 18.09Z" fill="#F5F5FF" stroke="#030303" stroke-width="0.4995" stroke-miterlimit="10" stroke-linecap="round" stroke-linejoin="round"/>
<path d="M46.82 27.68C46.02 25.62 46.26 23.19 47.44 21.32" stroke="#030303" stroke-width="0.535" stroke-miterlimit="10" stroke-linecap="round" stroke-linejoin="round"/>
<path d="M84.53 14.95C85.83 16.59 86.67 18.59 86.95 20.67" stroke="#030303" stroke-width="0.535" stroke-miterlimit="10" stroke-linecap="round" stroke-linejoin="round"/>
<path d="M76.01 17.76C77.22 19.71 77.97 21.94 78.17 24.23" stroke="#030303" stroke-width="0.535" stroke-miterlimit="10" stroke-linecap="round" stroke-linejoin="round"/>
<path d="M53.43 21.1C52.92 23.17 53.37 25.45 54.63 27.17" stroke="#030303" stroke-width="0.535" stroke-miterlimit="10" stroke-linecap="round" stroke-linejoin="round"/>
<path d="M64.85 20.16C65.57 22.11 65.95 24.2 65.95 26.28" stroke="#030303" stroke-width="0.535" stroke-miterlimit="10" stroke-linecap="round" stroke-linejoin="round"/>
<path d="M59.88 21.76C59.68 23.61 60.39 25.54 61.74 26.83C61.77 26.72 61.8 26.61 61.83 26.5" stroke="#030303" stroke-width="0.535" stroke-miterlimit="10" stroke-linecap="round" stroke-linejoin="round"/>
<path d="M71.66 20.47C72.08 21.97 72.15 23.57 71.86 25.11" stroke="#030303" stroke-width="0.535" stroke-miterlimit="10" stroke-linecap="round" stroke-linejoin="round"/>
<path d="M105.72 155.31H29.41L29.81 144.13L30.09 136.06L30.44 126.16L31.58 94.16L31.75 89.4L34.21 88.51L48.51 83.34L51.27 82.35L52.64 81.85L56.22 80.56L57.3 80.17H77.95L78.38 80.33L82.39 81.77L83.75 82.26L86.51 83.26L101.23 88.58L103.5 89.4L103.66 94.17L104.27 112.19L104.73 125.96L105.06 135.92V135.98L105.36 144.98L105.72 155.31Z" fill="#030303"/>
</g>
</svg>
